<svg width="12" height="12" viewBox="0 0 12 12" fill="none" xmlns="http://www.w3.org/2000/svg">
<path d="M9.68627 7.30209C9.53952 7.443 9.47209 7.64677 9.50552 7.84662L10.0092 10.6085C10.0517 10.8426 9.952 11.0795 9.75426 11.2148C9.56048 11.3552 9.30268 11.372 9.09134 11.2597L6.5819 9.96297C6.49465 9.91694 6.39776 9.89224 6.29861 9.88943H6.14506C6.0918 9.89729 6.03968 9.91413 5.99208 9.93995L3.48208 11.2429C3.35799 11.3046 3.21748 11.3265 3.0798 11.3046C2.74437 11.2418 2.52057 10.9252 2.57553 10.5911L3.0798 7.82922C3.11322 7.62769 3.0458 7.42279 2.89905 7.27964L0.853087 5.31486C0.681976 5.15038 0.622483 4.90338 0.700673 4.68052C0.776597 4.45821 0.970371 4.29598 1.20437 4.25949L4.02034 3.85475C4.23451 3.83285 4.42262 3.70374 4.51894 3.51287L5.75978 0.99234C5.78924 0.936204 5.8272 0.884558 5.8731 0.840772L5.92409 0.801476C5.95072 0.772285 5.98132 0.748146 6.01531 0.728498L6.07707 0.706044L6.17339 0.666748H6.41193C6.62497 0.688641 6.81251 0.814949 6.91053 1.00357L8.1678 3.51287C8.25845 3.69644 8.43466 3.82387 8.63807 3.85475L11.454 4.25949C11.692 4.29317 11.8909 4.45597 11.9696 4.68052C12.0439 4.90562 11.9798 5.15262 11.8053 5.31486L9.68627 7.30209Z" fill="#F5A623"/>
</svg>
