<svg width="176" height="25" fill="none" xmlns="http://www.w3.org/2000/svg"><path d="M16.32 3.06v3.39h-5.58V24h-4.2V6.45H.96V3.06h15.36zm5.195 2.34c-.74 0-1.36-.23-1.86-.69-.48-.48-.72-1.07-.72-1.77s.24-1.28.72-1.74c.5-.48 1.12-.72 1.86-.72s1.35.24 1.83.72c.5.46.75 1.04.75 1.74s-.25 1.29-.75 1.77c-.48.46-1.09.69-1.83.69zm2.07 1.98V24h-4.2V7.38h4.2zm24.79-.24c2.04 0 3.68.63 4.92 1.89 1.26 1.24 1.89 2.98 1.89 5.22V24h-4.2v-9.18c0-1.3-.33-2.29-.99-2.97-.66-.7-1.56-1.05-2.7-1.05-1.14 0-2.05.35-2.73 1.05-.66.68-.99 1.67-.99 2.97V24h-4.2v-9.18c0-1.3-.33-2.29-.99-2.97-.66-.7-1.56-1.05-2.7-1.05-1.16 0-2.08.35-2.76 1.05-.66.68-.99 1.67-.99 2.97V24h-4.2V7.38h4.2v2.01c.54-.7 1.23-1.25 2.07-1.65.86-.4 1.8-.6 2.82-.6 1.3 0 2.46.28 3.48.84 1.02.54 1.81 1.32 2.37 2.34.54-.96 1.32-1.73 2.34-2.31 1.04-.58 2.16-.87 3.36-.87zM63.37 9.81c.54-.8 1.28-1.45 2.22-1.95.96-.5 2.05-.75 3.27-.75 1.42 0 2.7.35 3.84 1.05 1.16.7 2.07 1.7 2.73 3 .68 1.28 1.02 2.77 1.02 4.47 0 1.7-.34 3.21-1.02 4.53-.66 1.3-1.57 2.31-2.73 3.03-1.14.72-2.42 1.08-3.84 1.08-1.24 0-2.33-.24-3.27-.72-.92-.5-1.66-1.14-2.22-1.92V24h-4.2V1.8h4.2v8.01zm8.79 5.82c0-1-.21-1.86-.63-2.58-.4-.74-.94-1.3-1.62-1.68-.66-.38-1.38-.57-2.16-.57-.76 0-1.48.2-2.16.6-.66.38-1.2.94-1.62 1.68-.4.74-.6 1.61-.6 2.61 0 1 .2 1.87.6 2.61.42.74.96 1.31 1.62 1.71.68.38 1.4.57 2.16.57.78 0 1.5-.2 2.16-.6.68-.4 1.22-.97 1.62-1.71.42-.74.63-1.62.63-2.64zm22.792-.3c0 .6-.04 1.14-.12 1.62h-12.15c.1 1.2.52 2.14 1.26 2.82.74.68 1.65 1.02 2.73 1.02 1.56 0 2.67-.67 3.33-2.01h4.53c-.48 1.6-1.4 2.92-2.76 3.96-1.36 1.02-3.03 1.53-5.01 1.53-1.6 0-3.04-.35-4.32-1.05a7.728 7.728 0 01-2.97-3.03c-.7-1.3-1.05-2.8-1.05-4.5 0-1.72.35-3.23 1.05-4.53.7-1.3 1.68-2.3 2.94-3 1.26-.7 2.71-1.05 4.35-1.05 1.58 0 2.99.34 4.23 1.02 1.26.68 2.23 1.65 2.91 2.91.7 1.24 1.05 2.67 1.05 4.29zm-4.35-1.2c-.02-1.08-.41-1.94-1.17-2.58-.76-.66-1.69-.99-2.79-.99-1.04 0-1.92.32-2.64.96-.7.62-1.13 1.49-1.29 2.61h7.89zm11.615-4.17c.54-.88 1.24-1.57 2.1-2.07.88-.5 1.88-.75 3-.75v4.41h-1.11c-1.32 0-2.32.31-3 .93-.66.62-.99 1.7-.99 3.24V24h-4.2V7.38h4.2v2.58zm35.919-6.9L132.286 24h-4.95l-3.93-14.91-4.11 14.91-4.92.03-5.64-20.97h4.5l3.69 16.26 4.26-16.26h4.68l4.02 16.17 3.72-16.17h4.53zm10.123 21.21c-1.6 0-3.04-.35-4.32-1.05a7.877 7.877 0 01-3.03-3.03c-.72-1.3-1.08-2.8-1.08-4.5 0-1.7.37-3.2 1.11-4.5.76-1.3 1.79-2.3 3.09-3 1.3-.72 2.75-1.08 4.35-1.08 1.6 0 3.05.36 4.35 1.08 1.3.7 2.32 1.7 3.06 3 .76 1.3 1.14 2.8 1.14 4.5 0 1.7-.39 3.2-1.17 4.5-.76 1.3-1.8 2.31-3.12 3.03-1.3.7-2.76 1.05-4.38 1.05zm0-3.66c.76 0 1.47-.18 2.13-.54.68-.38 1.22-.94 1.62-1.68.4-.74.6-1.64.6-2.7 0-1.58-.42-2.79-1.26-3.63-.82-.86-1.83-1.29-3.03-1.29-1.2 0-2.21.43-3.03 1.29-.8.84-1.2 2.05-1.2 3.63s.39 2.8 1.17 3.66c.8.84 1.8 1.26 3 1.26zm15.95-18.81V24h-4.2V1.8h4.2zm11.77 9.03h-2.91V24h-4.26V10.83h-1.89V7.38h1.89v-.84c0-2.04.58-3.54 1.74-4.5 1.16-.96 2.91-1.41 5.25-1.35v3.54c-1.02-.02-1.73.15-2.13.51-.4.36-.6 1.01-.6 1.95v.69h2.91v3.45z" fill="#1D293F"/></svg>